<?xml version="1.0" encoding="utf-8"?>
<!-- Generator: Adobe Illustrator 19.0.0, SVG Export Plug-In . SVG Version: 6.00 Build 0)  -->
<svg version="1.1" id="Layer_1" xmlns="http://www.w3.org/2000/svg" xmlns:xlink="http://www.w3.org/1999/xlink" x="0px" y="0px"
	 viewBox="-248 337 303 127" style="enable-background:new -248 337 303 127;" xml:space="preserve">
<style type="text/css">
	.st0{clip-path:url(#XMLID_15_);}
	.st1{clip-path:url(#XMLID_17_);}
	.st2{clip-path:url(#XMLID_19_);fill:#191A33;}
	.st3{clip-path:url(#XMLID_19_);fill:#46BFEF;}
	.st4{clip-path:url(#XMLID_19_);fill:#F9E6D2;}
	.st5{clip-path:url(#XMLID_19_);fill:#1A1833;}
	.st6{clip-path:url(#XMLID_19_);fill:#54C1E1;}
</style>
<g id="XMLID_14_">
	<defs>
		<rect id="XMLID_1_" x="-234.4" y="343.8" width="535.3" height="113.5"/>
	</defs>
	<clipPath id="XMLID_15_">
		<use xlink:href="#XMLID_1_"  style="overflow:visible;"/>
	</clipPath>
	<g id="XMLID_16_" class="st0">
		<defs>
			<rect id="XMLID_2_" x="-146.3" y="358.6" width="27.9" height="86.2"/>
		</defs>
		<clipPath id="XMLID_17_">
			<use xlink:href="#XMLID_2_"  style="overflow:visible;"/>
		</clipPath>
		<g id="XMLID_18_" class="st1">
			<defs>
				<rect id="XMLID_3_" x="-146.3" y="358.6" width="27.9" height="86.2"/>
			</defs>
			<clipPath id="XMLID_19_">
				<use xlink:href="#XMLID_3_"  style="overflow:visible;"/>
			</clipPath>
			<path id="XMLID_24_" class="st2" d="M-118.8,360.6c0.4,0.4,0.6,1,0.5,1.5l-4.7,59.2l0,0c0,0,0,0,0,0c0,0.1,0,0.2-0.1,0.4
				c0,0.1-0.1,0.3-0.2,0.4l-11.2,21.6c-0.4,0.7-1.1,1.1-1.9,1.1c0,0-0.1,0-0.1,0c-0.8-0.1-1.5-0.6-1.8-1.4l-3.6-10.5v0l-4.3-12.3v0
				c0-0.1-0.1-0.2-0.1-0.4c0,0,0,0,0,0c0-0.1,0-0.2,0-0.3c0,0,0-0.1,0-0.1v0l3.6-59.3c0-0.5,0.3-1.1,0.7-1.4
				c0.4-0.4,0.9-0.6,1.5-0.5l20.2,1.2C-119.7,359.9-119.2,360.1-118.8,360.6 M-127,419.1l4.4-55.3l-6.7-0.4l-3.5,56.6
				C-130.6,419.4-128.5,419.2-127,419.1 M-132.4,430.7l3.8-7.3c-1.6,0.2-3.6,0.7-5.5,1.6c-0.1,0.1-0.3,0.1-0.5,0.2
				c-0.1,0-0.2,0-0.3,0c-0.1,0-0.1,0-0.2,0c-0.4,0-0.8-0.1-1.2-0.4c0,0,0,0,0,0c-1.1-0.9-3-1.5-4.7-2l2.6,7.5L-132.4,430.7z
				 M-135.9,437.6l1.5-2.8l-2.5-0.2L-135.9,437.6z M-136.9,419.8l3.5-56.6l-5.2-0.3l-3.4,55.4C-140.6,418.6-138.7,419.1-136.9,419.8
				"/>
			<path id="XMLID_7_" class="st3" d="M-122.6,363.9l-4.4,55.3c-1.5,0.1-3.5,0.3-5.8,1l3.5-56.6L-122.6,363.9z"/>
			<path id="XMLID_6_" class="st4" d="M-128.6,423.4l-3.8,7.3l-6-0.4l-2.6-7.5c1.7,0.5,3.6,1.1,4.7,2c0,0,0,0,0,0
				c0.4,0.3,0.8,0.4,1.2,0.4c0.1,0,0.1,0,0.2,0c0.1,0,0.2,0,0.3,0c0.2,0,0.3-0.1,0.5-0.2C-132.2,424.1-130.2,423.6-128.6,423.4"/>
			<polygon id="XMLID_5_" class="st5" points="-134.4,434.7 -135.9,437.6 -136.9,434.6 			"/>
			<path id="XMLID_4_" class="st6" d="M-133.5,363.2l-3.5,56.6c-1.8-0.7-3.7-1.2-5.1-1.5l3.4-55.4L-133.5,363.2z"/>
		</g>
	</g>
</g>
</svg>
